<svg id="fazhihui-logo-svg" xmlns="http://www.w3.org/2000/svg" viewBox="0 0 200 200" width="240" height="240" class="select-none overflow-visible " style="max-width: 100%; height: auto;"><defs><linearGradient id="grad-primary-compliance_matrix" x1="0%" y1="0%" x2="100%" y2="100%"><stop offset="0%" stop-color="#0F172A"/><stop offset="100%" stop-color="#475569"/></linearGradient><linearGradient id="grad-gold-compliance_matrix" x1="0%" y1="0%" x2="100%" y2="100%"><stop offset="0%" stop-color="#F59E0B"/><stop offset="50%" stop-color="#D97706"/><stop offset="100%" stop-color="#0F172A"/></linearGradient><filter id="glow-filter-compliance_matrix" x="-20%" y="-20%" width="140%" height="140%"><feGaussianBlur stdDeviation="3" result="blur"/><feComposite in="SourceGraphic" in2="blur" operator="over"/></filter></defs><g class="transition-all duration-500"><polygon points="&#10;                100,46&#10;                148,73&#10;                148,127&#10;                100,154&#10;                52,127&#10;                52,73&#10;              " fill="none" stroke="url(#grad-gold-compliance_matrix)" stroke-width="4.840000000000001" stroke-linejoin="round" filter="url(#glow-filter-compliance_matrix)"/><circle cx="100" cy="46" r="6" fill="#D97706"/><circle cx="148" cy="73" r="6" fill="#F59E0B"/><circle cx="148" cy="127" r="6" fill="#D97706"/><circle cx="100" cy="154" r="6" fill="#F59E0B"/><circle cx="52" cy="127" r="6" fill="#D97706"/><circle cx="52" cy="73" r="6" fill="#F59E0B"/><path d="M 100 70 L 109.6 90.4 L 130 100 L 109.6 109.6 L 100 130 L 90.4 109.6 L 70 100 L 90.4 90.4 Z" fill="url(#grad-gold-compliance_matrix)"/><circle cx="100" cy="100" r="7.199999999999999" fill="#0F172A"/><circle cx="100" cy="100" r="3.5999999999999996" fill="#FFFFFF"/></g></svg>